<svg width="180" height="179" viewBox="0 0 180 179" xmlns="http://www.w3.org/2000/svg" xmlns:xlink="http://www.w3.org/1999/xlink"><title>Get Quotes</title><defs><rect id="a" width="179.1" height="178.838" rx="187.137"/><path id="c" d="M65.334 15.135l28.07 7.797c3.183 1.13 5.766 3.562 7.11 6.663v9.94H0v-9.94c1.343-3.1 3.927-5.533 7.11-6.663l28.07-7.797V0h30.154v15.135z"/><path id="e" d="M20.12 59.05c-1.533.002-3.522-.3-4.835-.87-1.57-.68-7.268-4.62-9.177-6.342-2.56-2.31-3.788-5.156-4.183-10.132S.035 19.03.035 14.953C.036 9.2 5.17.3 20.056.253h.132c14.888.046 20.02 8.947 20.02 14.7 0 4.078-1.494 21.777-1.89 26.753-.395 4.976-1.622 7.82-4.183 10.132-1.91 1.723-7.608 5.662-9.177 6.343-1.313.57-3.302.872-4.835.87z"/><path id="g" d="M65.403 15.15l28.1 7.806c3.186 1.13 5.772 3.566 7.117 6.67v9.95H0v-9.95c1.344-3.104 3.93-5.54 7.118-6.67l28.1-7.805V0h30.185v15.15z"/><path id="i" d="M20.142 59.112c-1.535.003-3.527-.3-4.84-.87-1.57-.68-7.277-4.625-9.188-6.35-2.563-2.312-3.792-5.16-4.187-10.142-.396-4.98-1.89-22.7-1.89-26.782C.036 9.21 5.172.298 20.076.254h.13C35.11.3 40.247 9.21 40.247 14.968c0 4.083-1.494 21.8-1.89 26.782-.395 4.98-1.624 7.83-4.188 10.143-1.912 1.724-7.617 5.668-9.187 6.35-1.315.57-3.306.872-4.84.87z"/><path id="k" d="M81.45 14.242c0 5.213 6.14 6.803 9.21 7.598l29.48 7.637c4.093 1.452 7.416 4.578 9.144 8.565V50.82H0V38.04c1.727-3.987 5.05-7.113 9.145-8.565l29.492-7.64c3.066-.794 9.198-2.336 9.198-7.595V0H81.45v14.242z"/><path d="M0 0h129.284v54.728H0V0zm64.642 40.394c15.586.044 26.905-18.324 26.905-18.324S78.794 1.304 64.642 1.304c-14.152 0-26.905 20.766-26.905 20.766s11.32 18.28 26.905 18.324z" id="m"/><path id="o" d="M.05 44.636c3.156-1.112 9.335-4.607 15.477-15.55 8.776-15.635 22.172-8.465 26.53-3.43.497.575 1.203.29 1.203.29s11.073-4.776 15.552 5.018c3.29 7.194 4.997 9.235 8.366 11.517V32.183c.01-20.257-12.262-20.413-12.782-20.454-.52-.04-.966.04-1.202-.793C52.134 7.2 40.014-5.3 19.884 2.58-.243 10.464.05 39.1.05 39.1v5.536z"/></defs><g fill="none" fill-rule="evenodd"><mask id="b" fill="#fff"><use xlink:href="#a"/></mask><use fill="#FFF" xlink:href="#a"/><g mask="url(#b)"><g id="body" transform="translate(-20.015 133.151)"><mask id="d" fill="#fff"><use xlink:href="#c"/></mask><use id="shoulders" fill="#FBC8C8" xlink:href="#c"/><path d="M50.005-28.89h.175c3.03.007 7.53.138 10.49 1.387 3.068 1.296 6.746 3.838 7.807 8.293 2.232 9.372-1.926 24.167-5.8 28.982-3.708 4.607-9.02 6.3-12.407 6.438-.027.007-.055.01-.083.01-.06 0-.12 0-.182-.002l-.182.002c-.027 0-.055-.003-.082-.01-3.386-.137-8.7-1.83-12.406-6.438-3.875-4.815-8.032-19.61-5.8-28.982 1.06-4.455 4.74-6.997 7.808-8.293 2.958-1.25 7.46-1.38 10.49-1.388H50.005z" id="head-shadow" fill="#F7B4B4" mask="url(#d)"/><path d="M0-3.04h100.513v42.575H0V-3.04zm50.257 30.41c11.102 0 20.102-6.353 20.102-14.192 0-7.838-9-14.192-20.103-14.192-11.103 0-20.103 6.354-20.103 14.192 0 7.84 9 14.193 20.103 14.193z" id="shirt" fill="#FACB1B" mask="url(#d)"/><path d="M50.257 30.412c12.767 0 23.118-7.49 23.118-16.727S63.025-3.04 50.257-3.04C37.49-3.04 27.14 4.447 27.14 13.684c0 9.238 10.35 16.727 23.117 16.727zm0-4.055c10.547 0 19.097-6.127 19.097-13.685 0-7.56-8.55-13.686-19.097-13.686-10.548 0-19.098 6.127-19.098 13.686 0 7.558 8.55 13.685 19.097 13.685z" id="lace" fill="#E4B815" mask="url(#d)"/></g><path d="M48.362 123.815c1.383.122 4.722-2.088 4.988-5.154.266-3.064 1.483-5.46-2.022-5.77-3.504-.31-2.72 2.264-2.985 5.33-.266 3.065-1.364 5.473.02 5.595z" id="Oval-35" fill="#FBC8C8"/><path d="M11.843 123.815c-1.382.122-4.72-2.088-4.987-5.154-.267-3.064-1.484-5.46 2.02-5.77 3.506-.31 2.72 2.264 2.986 5.33.266 3.065 1.364 5.473-.02 5.595z" id="Oval-36" fill="#FBD7D7"/><g id="head" transform="translate(10.139 87.28)"><mask id="f" fill="#fff"><use xlink:href="#e"/></mask><use fill="#FADBDB" xlink:href="#e"/><path d="M15.325 46.167c-.246 0-.398.39-.272.7.852 2.093 2.335 3.274 4.214 3.466 1.977.202 4.12-1.204 5.162-3.42.144-.306-.006-.724-.26-.724l-8.845-.023z" id="mouth-2" fill="#F7B4B4" mask="url(#f)"/></g><g id="face"><g id="eyes-narrowed" fill="#291F21" transform="translate(19.185 114.904)"><ellipse id="Oval-3" cx="20.605" cy="2.534" rx="2.513" ry="2.534"/><ellipse id="Oval-3" cx="2.513" cy="2.534" rx="2.513" ry="2.534"/></g></g><g id="hair"><path d="M49.16 120.147s.79-6.343 3.74-7.318c.395-1.846 1.485-7.078 1.466-9.99-.02-2.915-.286-5.81-1.93-8.178-1.824-2.626-5.678-4.112-7.688-4.112-2.338 1.394-7.738 4.63-9.47 6.574-.89 1 .397 1.784.397 1.784s1.217-.492 1.756-.634c2.54-.67 8.01-1.244 9.775 1.294 2.14 3.078 2.12 11.966 2.135 13.31.015 1.18-.18 7.27-.18 7.27z" id="Path-5" fill="#692E19"/><path d="M7.585 112.83c2.95.974 3.73 7.317 3.73 7.317s-.185-6.09-.17-7.27c.022-1.66.174-9.18 3.425-12.833 3.584-4.03 8.397-5.35 11.11-3.586 1.375.895 6.088 5.61 11.14 1.737 3.057-2.345 8.5-7.62 8.5-7.62S42.4 81.523 29.13 82.61c-5.615.46-6.36 2.984-10.865 2.984-4.507 0-11.01 8.39-11.813 13.06-.168.884-.256 1.797-.3 2.72-.027.54-.035 1.032-.035 1.465-.02 2.912 1.07 8.144 1.465 9.99z" id="Path-5" fill="#84462D"/></g></g><g mask="url(#b)"><g id="body" transform="translate(96.888 133.205)"><mask id="h" fill="#fff"><use xlink:href="#g"/></mask><use id="shoulders" fill="#FBC8C8" xlink:href="#g"/><path d="M50.058-28.922h.175c3.033.008 7.538.14 10.5 1.39 3.073 1.298 6.754 3.842 7.816 8.302 2.233 9.382-1.928 24.192-5.807 29.013-3.71 4.612-9.03 6.307-12.42 6.445-.027.006-.055.01-.082.01l-.182-.003-.182.002c-.028 0-.055-.003-.083-.01-3.39-.137-8.708-1.832-12.42-6.444-3.878-4.82-8.04-19.63-5.805-29.013 1.062-4.46 4.743-7.004 7.815-8.302 2.962-1.25 7.468-1.382 10.5-1.39h.174z" id="head-shadow" fill="#F7B4B4" mask="url(#h)"/><path d="M0-3.044h100.62v42.62H0v-42.62zM50.31 27.4c11.114 0 20.124-6.36 20.124-14.208 0-7.846-9.01-14.207-20.124-14.207-11.114 0-20.124 6.36-20.124 14.207S39.196 27.4 50.31 27.4z" id="shirt" fill="#FACB1B" mask="url(#h)"/><path d="M50.31 30.444c12.78 0 23.142-7.497 23.142-16.744 0-9.248-10.36-16.744-23.142-16.744-12.78 0-23.143 7.496-23.143 16.744 0 9.247 10.362 16.744 23.143 16.744zm0-4.06c10.558 0 19.118-6.133 19.118-13.7 0-7.565-8.56-13.7-19.118-13.7-10.56 0-19.118 6.135-19.118 13.7 0 7.567 8.56 13.7 19.118 13.7z" fill="#15CAE4" mask="url(#h)"/></g><path d="M165.337 123.86c1.384.12 4.727-2.09 4.993-5.16.266-3.07 1.485-5.468-2.024-5.778-3.508-.31-2.722 2.267-2.988 5.336-.266 3.07-1.365 5.48.02 5.6z" fill="#FBC8C8"/><path d="M128.78 123.86c-1.384.12-4.727-2.09-4.993-5.16-.267-3.07-1.485-5.468 2.023-5.778 3.508-.31 2.722 2.267 2.988 5.336.267 3.07 1.366 5.48-.018 5.6z" fill="#FBD7D7"/><g id="head" transform="translate(127.074 87.285)"><mask id="j" fill="#fff"><use xlink:href="#i"/></mask><use fill="#FADBDB" xlink:href="#i"/><path d="M15.342 46.216c-.247 0-.4.39-.273.7.852 2.096 2.336 3.278 4.218 3.47 1.978.202 4.122-1.205 5.167-3.422.145-.308-.006-.726-.26-.726l-8.853-.022z" fill="#F7B4B4" mask="url(#j)"/></g><g fill="#291F21" transform="translate(136.13 114.939)" id="face"><ellipse id="Oval-3" cx="20.627" cy="2.537" rx="2.515" ry="2.537"/><ellipse id="Oval-3" cx="2.515" cy="2.537" rx="2.515" ry="2.537"/></g><g id="hair"><path d="M166.133 120.187s.793-6.35 3.745-7.326c.395-1.846 1.487-7.083 1.468-10-.02-2.916-.287-5.813-1.934-8.185-1.824-2.63-5.683-4.116-7.695-4.116-2.34 1.394-7.746 4.633-9.48 6.58-.89 1.002.398 1.786.398 1.786s1.218-.493 1.758-.635c2.542-.67 5.558 6.505 7.324 9.046 2.14 3.08 4.416 12.85 4.416 12.85z" id="Path-5" fill="#692E19"/><path d="M124.517 112.86c2.952.977 3.734 7.327 3.734 7.327s-.184-6.095-.17-7.278c.023-1.663 6.165-4.716 9.42-8.373 3.587-4.034 11.226-2.448 16.28-6.325 3.063-2.348 8.51-7.628 8.51-7.628s-2.923-9.062-16.204-7.975c-5.62.46-6.365 2.987-10.876 2.987-4.51 0-11.022 8.4-11.825 13.073-.17.887-.257 1.8-.3 2.724-.028.54-.036 1.034-.036 1.466-.02 2.917 1.072 8.154 1.467 10z" fill="#84462D"/></g></g><g mask="url(#b)"><g id="hair"><path id="Rectangle-71" fill="#D98C21" d="M54.754 104.11h40.078v56.03H54.754z"/><path fill="#CC751F" d="M81.904 98.898h40.078v61.244H81.904z"/></g><g transform="translate(23.726 130.172)"><mask id="l" fill="#fff"><use xlink:href="#k"/></mask><use fill="#FBC8C8" xlink:href="#k"/><g transform="translate(0 -3.909)" mask="url(#l)"><mask id="n" fill="#fff"><use xlink:href="#m"/></mask><use fill="#6B363E" xlink:href="#m"/><path d="M93.557 25.715c-1.632 13.08-11.974 22.498-11.974 22.498s-10.628-9.1-13.192-9.915c16.466-9.952 22.063-15.67 22.063-15.67s4.737-9.993 3.104 3.087zm-57.697 0c1.633 13.08 11.975 22.498 11.975 22.498s10.627-9.1 13.192-9.915c-16.466-9.952-22.062-15.67-22.062-15.67s-4.737-9.993-3.105 3.087z" fill="#FFF" mask="url(#n)"/></g><path d="M64.898-65.153h.246c4.264.016 10.598.266 14.762 2.648 4.32 2.47 9.496 7.317 10.99 15.81 3.14 17.867-2.71 46.072-8.164 55.252-5.218 8.783-12.695 12.012-17.46 12.274-.04.013-.08.02-.118.02-.084 0-.17-.002-.256-.004l-.256.003c-.04 0-.078-.007-.116-.02-4.767-.26-12.244-3.49-17.462-12.273C41.61-.623 35.76-28.828 38.9-46.696c1.494-8.492 6.67-13.338 10.99-15.81 4.164-2.38 10.498-2.63 14.762-2.646h.246z" fill="#F7B4B4" mask="url(#l)"/></g><path d="M88.357 71.534c24.64.06 26.77 17.985 26.914 19.62 1.373 15.562-3.888 36.552-8.822 43.852-5.218 7.72-12.695 10.556-17.462 10.787-.2.015-.286.014-.372.012l-.257.003c-4.883-.246-12.36-3.083-17.577-10.802-4.95-7.322-10.228-28.422-8.81-43.998.144-1.583 1.748-19.533 26.387-19.474z" fill="#FBD7D7"/><path d="M82.962 130.17c-.32 0-.517.507-.354.907 1.105 2.71 3.026 4.24 5.462 4.49 2.56.26 5.337-1.56 6.69-4.43.186-.397-.008-.938-.34-.938l-11.458-.03z" fill="#F7B4B4"/><g transform="translate(74.146 106.717)" fill="#262626"><ellipse id="Oval-3" cx="25.857" cy="2.606" rx="2.586" ry="2.606"/><ellipse cx="2.586" cy="2.606" rx="2.586" ry="2.606"/></g><g transform="translate(54.754 65.019)"><mask id="p" fill="#fff"><use xlink:href="#o"/></mask><use fill="#E6A422" xlink:href="#o"/><path d="M42.453 26.83s3.87-9.823 11.673-15.724c7.803-5.9 14.442 9.585 14.442 9.585l.333 25.484L42.454 26.83z" fill="#D98C21" mask="url(#p)"/></g></g><g><g id="Group-4"><path d="M112.43 18.553c0-2.203-1.753-3.99-3.914-3.99-2.16 0-3.914 1.787-3.914 3.99v3.99h7.828v-3.99z" id="Fill-2720" fill="#E2E4E5"/><path d="M108.516 14.564c-2.61 0-3.914 2.66-3.914 3.99v34.57c0 2.2-1.754 3.988-3.914 3.988H75.9v-38.56c0-2.2 1.756-3.988 3.915-3.988h28.7z" id="Fill-2721" stroke="#E2E4E5" stroke-width=".55" fill="#FFF"/><path d="M96.775 53.123v-3.99H70.683v3.99c0 2.203 1.753 3.99 3.914 3.99h26.09c-2.16 0-3.912-1.787-3.912-3.99" id="Fill-2722" fill="#E2E4E5"/><path d="M90.72 20.76c0 .367-.18.665-.4.665H79.85c-.222 0-.402-.298-.402-.665 0-.367.18-.665.402-.665H90.32c.22 0 .4.298.4.665" id="Fill-2724" fill="#E2E4E5"/><path d="M90.72 25.04c0 .368-.18.666-.4.666H79.85c-.222 0-.402-.298-.402-.665 0-.366.18-.663.402-.663H90.32c.22 0 .4.297.4.664" id="Fill-2727" fill="#E2E4E5"/><path d="M99.123 20.76c0 .367-.034.665-.077.665h-1.15c-.043 0-.078-.298-.078-.665 0-.367.035-.665.077-.665h1.15c.044 0 .078.298.078.665" id="Fill-2730" fill="#E2E4E5"/><path d="M99.123 25.04c0 .368-.02.666-.047.666h-1.21c-.027 0-.048-.298-.048-.665 0-.366.02-.663.047-.663h1.21c.027 0 .048.297.048.664" id="Fill-2729" fill="#E2E4E5"/><path d="M90.72 29.296c0 .367-.18.665-.4.665H79.85c-.222 0-.402-.297-.402-.664 0-.367.18-.665.402-.665H90.32c.22 0 .4.3.4.666" id="Fill-2728" fill="#E2E4E5"/><path d="M99.123 29.296c0 .367-.02.665-.047.665h-1.21c-.027 0-.048-.297-.048-.664 0-.367.02-.665.047-.665h1.21c.027 0 .048.3.048.666" id="Fill-2731" fill="#E2E4E5"/><path d="M88.634 35.678c0 .367-.147.665-.328.665h-8.528c-.18 0-.328-.298-.328-.665 0-.366.147-.664.328-.664h8.528c.18 0 .328.298.328.664" id="Fill-2733" fill="#E2E4E5"/><path d="M88.634 39.082c0 .367-.147.665-.328.665h-8.528c-.18 0-.328-.298-.328-.665 0-.367.147-.664.328-.664h8.528c.18 0 .328.297.328.664" id="Fill-2734" fill="#E2E4E5"/><path d="M88.634 42.486c0 .367-.147.665-.328.665h-8.528c-.18 0-.328-.297-.328-.664 0-.367.147-.665.328-.665h8.528c.18 0 .328.3.328.666" id="Fill-2735" fill="#E2E4E5"/><path d="M99.183 34.987h-5.957v1.134h1.116c1.383 0 2.263.384 2.483 1.4H94.31l-1.084.085v.733h3.63c-.094 1.334-1.005 1.968-2.514 1.968h-1.116v1.117h1.21l2.798 4.2h1.477l-2.953-4.334c1.35-.334 2.294-1.285 2.388-2.952h1.038v-.817h-1.07c-.14-.766-.565-1.383-1.162-1.716h2.233v-.817z" id="₹" fill="#49E4C3"/></g></g><g><g id="Group-4"><path d="M49.73 48.438c0-1.63-1.295-2.95-2.892-2.95-1.598 0-2.893 1.32-2.893 2.95v2.95h5.786v-2.95z" id="Fill-2720" fill="#E2E4E5"/><path d="M46.838 45.487c-1.93 0-2.893 1.967-2.893 2.95v25.578c0 1.628-1.297 2.95-2.893 2.95H22.73V48.44c0-1.628 1.296-2.95 2.892-2.95h21.216z" id="Fill-2721" stroke="#E2E4E5" stroke-width=".55" fill="#FFF"/><path d="M38.16 74.015v-2.95H18.87v2.95c0 1.63 1.296 2.95 2.893 2.95h19.287c-1.598 0-2.893-1.32-2.893-2.95" id="Fill-2722" fill="#E2E4E5"/><path d="M33.684 50.07c0 .273-.133.493-.297.493H25.65c-.164 0-.298-.22-.298-.492 0-.27.134-.49.298-.49h7.737c.164 0 .297.22.297.49" id="Fill-2724" fill="#E2E4E5"/><path d="M33.684 53.24c0 .27-.133.49-.297.49H25.65c-.164 0-.298-.22-.298-.49 0-.273.134-.493.298-.493h7.737c.164 0 .297.22.297.492" id="Fill-2727" fill="#E2E4E5"/><path d="M39.895 50.07c0 .273-.026.493-.057.493h-.85c-.032 0-.058-.22-.058-.492 0-.27.026-.49.057-.49h.85c.032 0 .058.22.058.49" id="Fill-2730" fill="#E2E4E5"/><path d="M39.895 53.24c0 .27-.016.49-.035.49h-.895c-.02 0-.035-.22-.035-.49 0-.273.016-.493.035-.493h.895c.02 0 .035.22.035.492" id="Fill-2729" fill="#E2E4E5"/><path d="M33.684 56.387c0 .27-.133.492-.297.492H25.65c-.164 0-.298-.222-.298-.493 0-.272.134-.492.298-.492h7.737c.164 0 .297.22.297.492" id="Fill-2728" fill="#E2E4E5"/><path d="M39.895 56.387c0 .27-.016.492-.035.492h-.895c-.02 0-.035-.222-.035-.493 0-.272.016-.492.035-.492h.895c.02 0 .035.22.035.492" id="Fill-2731" fill="#E2E4E5"/><path d="M32.14 61.11c0 .27-.107.49-.24.49h-6.305c-.134 0-.243-.22-.243-.49 0-.273.11-.493.243-.493H31.9c.133 0 .24.22.24.492" id="Fill-2733" fill="#E2E4E5"/><path d="M32.14 63.627c0 .272-.107.492-.24.492h-6.305c-.134 0-.243-.22-.243-.493 0-.27.11-.492.243-.492H31.9c.133 0 .24.22.24.492" id="Fill-2734" fill="#E2E4E5"/><path d="M32.14 66.145c0 .272-.107.492-.24.492h-6.305c-.134 0-.243-.22-.243-.492 0-.27.11-.49.243-.49H31.9c.133 0 .24.22.24.49" id="Fill-2735" fill="#E2E4E5"/><path d="M39.94 60.597h-4.404v.84h.825c1.023 0 1.674.283 1.836 1.035h-1.86l-.8.062v.543h2.683c-.07.986-.744 1.455-1.86 1.455h-.824v.827h.894l2.068 3.107h1.092l-2.184-3.207c1-.247 1.696-.95 1.766-2.183h.767v-.605h-.79c-.106-.567-.42-1.024-.86-1.27h1.65v-.605z" id="₹" fill="#49E4C3"/></g></g><g><path d="M164.23 48.57c0-1.7-1.352-3.076-3.02-3.076-1.67 0-3.022 1.377-3.022 3.075v3.075h6.043V48.57z" fill="#E2E4E5"/><path d="M161.21 45.494c-2.015 0-3.022 2.05-3.022 3.075V75.22c0 1.697-1.355 3.075-3.022 3.075H136.03V48.57c0-1.697 1.354-3.076 3.02-3.076h22.16z" stroke="#E2E4E5" stroke-width=".55" fill="#FFF"/><path d="M152.145 75.222v-3.075H132v3.075c0 1.698 1.354 3.075 3.023 3.075h20.143c-1.668 0-3.02-1.377-3.02-3.075M147.47 50.27c0 .284-.138.514-.31.514h-8.08c-.172 0-.31-.23-.31-.513 0-.282.138-.512.31-.512h8.08c.172 0 .31.23.31.513M147.47 53.572c0 .283-.138.512-.31.512h-8.08c-.172 0-.31-.23-.31-.512 0-.283.138-.513.31-.513h8.08c.172 0 .31.23.31.512M153.957 50.27c0 .284-.026.514-.06.514h-.887c-.033 0-.06-.23-.06-.513 0-.282.027-.512.06-.512h.888c.033 0 .06.23.06.513M153.957 53.572c0 .283-.016.512-.036.512h-.934c-.02 0-.036-.23-.036-.512 0-.283.016-.513.036-.513h.935c.02 0 .037.23.037.512M147.47 56.852c0 .283-.138.513-.31.513h-8.08c-.172 0-.31-.23-.31-.513 0-.283.138-.512.31-.512h8.08c.172 0 .31.23.31.512M153.957 56.852c0 .283-.016.513-.036.513h-.934c-.02 0-.036-.23-.036-.513 0-.283.016-.512.036-.512h.935c.02 0 .037.23.037.512M145.86 61.773c0 .283-.114.512-.253.512h-6.585c-.14 0-.253-.23-.253-.512 0-.283.113-.513.252-.513h6.585c.14 0 .253.23.253.513M145.86 64.397c0 .283-.114.512-.253.512h-6.585c-.14 0-.253-.23-.253-.513 0-.283.113-.513.252-.513h6.585c.14 0 .253.23.253.513M145.86 67.02c0 .284-.114.514-.253.514h-6.585c-.14 0-.253-.23-.253-.513 0-.282.113-.51.252-.51h6.585c.14 0 .253.228.253.51" fill="#E2E4E5"/><path d="M154.004 61.24h-4.6v.874h.862c1.068 0 1.748.295 1.918 1.08h-1.942l-.837.064v.565h2.803c-.073 1.03-.777 1.517-1.942 1.517h-.86v.86h.933l2.16 3.24h1.14l-2.28-3.342c1.042-.257 1.77-.99 1.843-2.275h.8v-.63h-.824c-.11-.59-.438-1.066-.9-1.324h1.724v-.63z" fill="#49E4C3"/></g></g></svg>