<svg width="202" height="180" viewBox="0 0 202 180" xmlns="http://www.w3.org/2000/svg" xmlns:xlink="http://www.w3.org/1999/xlink"><title>Hire the best</title><defs><circle id="a" cx="90" cy="90" r="90"/><path id="c" d="M110.463 18.745l12.492 2.298 39.98 7.358c5.553 1.4 10.06 4.412 12.403 8.253v14.822H0V36.653c2.343-3.84 6.85-6.853 12.403-8.252L52.4 21.04l12.475-2.295V0h45.588v18.745z"/><path id="e" d="M83.86 14.566c0 5.33 6.32 6.957 9.482 7.77l30.352 7.81c4.215 1.486 7.637 4.683 9.416 8.76V93.66H0V38.907c1.778-4.077 5.2-7.274 9.416-8.76l30.364-7.813c3.157-.812 9.47-2.39 9.47-7.767V0h34.61v14.566z"/><path d="M133.11 0v95.856H0V0h133.11zM66.555 41.312c16.047.045 27.7-18.74 27.7-18.74s-13.13-21.238-27.7-21.238c-14.57 0-27.702 21.238-27.702 21.238s11.655 18.694 27.702 18.74z" id="g"/><path id="i" d="M.05 45.65c3.25-1.137 9.612-4.71 15.936-15.902 9.036-15.99 22.83-8.658 27.314-3.51.513.59 1.24.3 1.24.3s11.4-4.887 16.013 5.13c3.387 7.357 5.144 9.444 8.613 11.78V32.912c.01-20.717-12.625-20.877-13.16-20.918-.535-.042-.994.04-1.238-.81-1.09-3.82-13.57-16.607-34.294-8.546C-.25 10.7.05 39.986.05 39.986v5.663z"/><path id="k" d="M70 35.5C70 55.1 54.323 71 35 71 15.607 71 0 54.95 0 35.5 0 15.9 15.677 0 35 0s35 15.9 35 35.5"/><path id="m" d="M60.817 16.683l6.877 2.046c7.337 2.18 22.012 6.547 22.012 6.547 3.057 1.245 5.54 3.926 6.83 7.344v13.193H0V32.62c1.29-3.417 3.77-6.098 6.83-7.343l21.592-6.22 7.296-2.374V0h25.1v16.683z"/></defs><g fill="none" fill-rule="evenodd"><mask id="b" fill="#fff"><use xlink:href="#a"/></mask><use fill="#FFF" xlink:href="#a"/><g mask="url(#b)"><g id="body" transform="translate(80.375 108.005)"><mask id="d" fill="#fff"><use xlink:href="#c"/></mask><use id="shoulders" fill="#E6C19C" xlink:href="#c"/><path d="M0-1.09h175.338v53.707H0V-1.09zm87.67 34.897c23.72-.202 36.82-16.358 36.82-16.358S107.037-1.09 87.67-1.09c-19.368 0-36.822 18.54-36.822 18.54s13.1 16.56 36.82 16.357z" id="shirt" fill="#8EBF1D" mask="url(#d)"/><path d="M87.67 34.896c28.167-.24 43.72-19.424 43.72-19.424S110.667-6.542 87.67-6.542c-22.998 0-43.723 22.014-43.723 22.014S59.5 35.136 87.67 34.896zm0-4.36c21.137.036 36.49-15.336 36.49-15.336S106.86-2.18 87.67-2.18c-19.194 0-36.49 17.38-36.49 17.38s15.35 15.298 36.49 15.335z" id="lace" fill="#70A619" mask="url(#d)"/><path d="M88.017-52.346H88.35c5.783.012 14.374.21 20.02 2.104 5.86 1.963 12.88 5.814 14.904 12.563 4.26 14.2-3.674 36.616-11.07 43.912-7.077 6.98-17.217 9.545-23.682 9.754-.052.01-.105.014-.158.014-.114 0-.23 0-.347-.002L87.67 16c-.054 0-.106-.005-.16-.014-6.463-.21-16.604-2.774-23.68-9.754-7.396-7.296-15.33-29.71-11.07-43.91 2.024-6.75 9.044-10.6 14.902-12.564 5.648-1.893 14.24-2.092 20.02-2.104H88.018z" id="head-shadow" fill="#D4B08C" mask="url(#d)"/></g><path d="M167.68 65.474c33.416.05 36.305 13.962 36.5 15.33 1.86 13.024-5.273 27.32-11.966 33.43-7.077 6.46-17.217 8.833-23.682 9.026-.272.013-.388.012-.505.01l-.347.003c-6.623-.206-16.763-2.58-23.84-9.04-6.713-6.13-13.87-20.516-11.948-33.55.195-1.326 2.37-15.258 35.788-15.21z" id="head" fill="#F2CEA5"/><g id="face"><path d="M158.23 110.187c-.547 0-.71.417-.606.758.605 1.968 4.015 4.695 10.446 4.695 6.43 0 9.79-2.727 10.37-4.644.102-.342-.013-.786-.58-.786l-19.63-.023z" id="mouth" fill="#D4B08C"/><g id="eyes-narrowed" transform="translate(148.757 93.828)" fill="#291F21"><ellipse id="Oval-3" cx="35.068" cy="2.181" rx="3.507" ry="2.181"/><ellipse id="Oval-3" cx="3.507" cy="2.181" rx="3.507" ry="2.181"/></g></g><g id="hair"><path d="M203.23 94.652s1.3-3.74 4.518-4.8c2.285-5.964 2.387-8.025 2.377-9.004-.033-3.134-.5-6.247-3.37-8.796-3.178-2.825-9.902-4.424-13.41-4.424-4.076 1.5-13.497 4.98-16.517 7.072-1.555 1.078.692 1.92.692 1.92s7.987-6.552 8.58-2.944c.594 3.61 17.13 12.615 17.13 12.615v8.362z" id="Path-5" fill="#452228"/><path d="M126.76 83.62c-.004 1.11 1.275 5.072 2.123 6.706 2.935.615 4.14 4.668 4.14 4.668V86.28c10.492-1.828 22.522-5.6 29.355-11.267 2.113 3.912-.162 6.642-.162 6.642s11.78.188 20.592-3.978c5.335-2.523 11.537-10.022 11.537-10.022s-3.157-8.565-26.3-7.396c-9.795.494-14.523 4.278-30.515 3.307 0 0 1.503 2.43 3.308 3.842-7.103 2.026-14.043 7.603-14.078 16.21z" id="Path-5" fill="#6B363E"/></g></g><g mask="url(#b)"><path d="M29.983 130.852l-.01-.008h.02l-.01.008zm12.495-13.778v-.004l-6.38 5.003c-.71.8-1.728 1.256-2.798 1.256h-6.634c-1.07 0-2.088-.458-2.8-1.257l-6.378-5.003v3.763l-2.5 1.252 14.995 23.79 12.3-19.516c.193-4.265.195-7.688.195-9.286z" fill="#F8B4B4"/><path d="M-10 161.885l4.998-23.042c.768-2.792 2.12-5.015 3.802-6.25l16.19-10.508 24.843 39.8H-10z" fill="#DF2C2C"/><path d="M29.983 125.33h-3.317c-1.07 0-2.088-.457-2.8-1.257l-6.378-5.003c0 1.603.763 4.398.957 8.662L31.022 148l-1.04-15.148v-7.522z" fill="#FBC8C8"/><path d="M13.74 107.06l3.748 10.01 6.38 5.003c.71.8 1.728 1.256 2.798 1.256H33.3c1.07 0 2.088-.457 2.8-1.257l6.378-5.003 4.007-10.036c3.542-.255 4.74-5.638 4.74-9.712 0-1.358-1.193-2.707-2.414-2.77-.85 4.263-1.9 8.57-2.584 12.507h-1.25V90.784H14.99v16.274h-1.25z" fill="#FBC8C8"/><path d="M69.966 145.87l-4.998-13.77c-.768-1.67-2.122-2.997-3.802-3.734l-16.19-6.28-14.993 23.784h39.983z" fill="#FACB1B"/><path d="M42.478 117.074c0 3.756 0 17.526-2.5 28.793h17.493l-3.747-23.786-11.245-5.006z" fill="#FFF"/><path d="M45.914 145.867l2.5-22.534 1.248 22.534h-3.748z" fill="#E2E4E5"/><path d="M14.99 90.785v16.274h-1.25s-1.966-6.235-3.43-12.27c-.872.46-1.568 1.496-1.568 2.532 0 4.074 1.197 9.457 4.74 9.712l4.006 10.036 6.38 5.003c.71.8 1.728 1.256 2.798 1.256h3.317V90.784H14.99z" fill="#FBD7D7"/><path d="M23.736 109.56H36.23s0 3.755-6.247 3.755-6.247-3.756-6.247-3.756" fill="#F89392"/><path d="M26.227 97.09c0-1.382-1.12-2.504-2.5-2.504h-.007c0 .027.008.053.008.08 0 1.38-1.115 2.498-2.492 2.502.043 1.345 1.14 2.426 2.492 2.426 1.38 0 2.5-1.122 2.5-2.504M38.713 97.09c0-1.382-1.12-2.504-2.5-2.504h-.006c0 .027.007.053.007.08 0 1.38-1.114 2.498-2.49 2.502.04 1.345 1.137 2.426 2.49 2.426 1.38 0 2.5-1.122 2.5-2.504" fill="#3E3E3F"/><path d="M13.74 107.06S8.742 91.2 8.742 85.584C8.742 71.798 29.497 67 29.497 67v6.26L35.744 67v6.26l4.998-3.756c15.41 3.755 7.983 23.16 5.484 37.555h-1.25V90.784H14.99v16.274h-1.25z" fill="#3E3E3F"/></g><g mask="url(#b)"><g id="hair"><path id="Rectangle-71" fill="#D98C21" d="M56.57 66.877h41.265v57.305H56.57z"/><path fill="#CC751F" d="M84.524 61.546h41.264v62.635H84.524z"/></g><g id="body" transform="translate(24.625 93.529)"><mask id="f" fill="#fff"><use xlink:href="#e"/></mask><use id="shoulders" fill="#FBC8C8" xlink:href="#e"/><path d="M0-3.998h133.11v95.856H0V-3.998zm66.555 45.31c18.01-.247 27.953-19.99 27.953-19.99S81.258-1.332 66.555-1.332 38.602 21.323 38.602 21.323s9.944 20.237 27.953 19.99z" id="shirt" fill="#249CF2" mask="url(#f)"/><g transform="translate(0 -3.998)" mask="url(#f)"><mask id="h" fill="#fff"><use xlink:href="#g"/></mask><use id="shirt" fill="#21B2D1" xlink:href="#g"/><path d="M96.326 26.3c-1.68 13.377-12.33 23.01-12.33 23.01S73.057 40 70.417 39.167C87.367 28.99 93.128 23.14 93.128 23.14s4.877-10.217 3.196 3.16zm-59.404 0c1.68 13.377 12.33 23.01 12.33 23.01S60.19 40 62.83 39.167C45.88 28.99 40.12 23.14 40.12 23.14s-4.877-10.217-3.196 3.16z" fill="#FFF" mask="url(#h)"/></g><path d="M66.82-66.633h.252c4.39.016 10.912.272 15.2 2.707 4.447 2.527 9.776 7.484 11.313 16.17C96.82-29.484 90.795-.637 85.18 8.75c-5.372 8.982-13.07 12.284-17.978 12.553-.04.012-.08.018-.12.018-.086 0-.174 0-.263-.003l-.265.003c-.04 0-.08-.006-.12-.018-4.908-.27-12.606-3.57-17.978-12.553-5.615-9.39-11.64-38.235-8.404-56.51 1.537-8.684 6.866-13.64 11.313-16.168 4.288-2.435 10.81-2.69 15.2-2.707h.252z" id="head-shadow" fill="#F7B4B4" mask="url(#f)"/></g><path d="M91.17 33.56c25.368.06 27.56 18.393 27.71 20.066 1.41 15.915-4.005 37.383-9.085 44.848-5.372 7.894-13.07 10.796-17.978 11.032-.207.016-.295.015-.384.013l-.264.002c-5.028-.252-12.726-3.154-18.1-11.048-5.095-7.49-10.53-29.068-9.07-44.998.15-1.62 1.8-19.977 27.17-19.916z" id="head" fill="#FBD7D7"/><g id="face"><path d="M85.614 93.53c-.328 0-.532.517-.364.926 1.138 2.772 3.116 4.336 5.624 4.59 2.636.268 5.494-1.595 6.886-4.528.193-.406-.007-.96-.347-.96l-11.8-.03z" id="mouth" fill="#F7B4B4"/><g transform="translate(76.538 69.541)" fill="#262626"><ellipse id="Oval-3" cx="26.622" cy="2.665" rx="2.662" ry="2.665"/><ellipse id="Oval-3" cx="2.662" cy="2.665" rx="2.662" ry="2.665"/></g></g><g id="hair" transform="translate(56.571 26.896)"><mask id="j" fill="#fff"><use xlink:href="#i"/></mask><use fill="#E6A422" xlink:href="#i"/><path d="M43.71 27.44s3.984-10.047 12.018-16.08c8.034-6.036 14.87 9.8 14.87 9.8l.342 26.063L43.71 27.44z" fill="#D98C21" mask="url(#j)"/></g></g><g><path d="M167.737 119.64l22.188 22.235c2.762 2.768 7.237 2.768 10 0 2.762-2.77 2.762-7.253 0-10.02l-22.238-22.285c-2.462 4.108-5.875 7.566-9.95 10.07" fill="#84462D"/><path d="M173.387 115.12L200 141.786c2.687-2.768 2.662-7.19-.063-9.933l-22.25-22.296c-1.212 2.016-2.662 3.883-4.3 5.56" fill="#9C6144"/><g transform="matrix(-1 0 0 1 191 55)"><mask id="l" fill="#fff"><use xlink:href="#k"/></mask><use fill="#E7FFFA" xlink:href="#k"/><g mask="url(#l)"><g transform="translate(-12.375 52.727)"><mask id="n" fill="#fff"><use xlink:href="#m"/></mask><use fill="#E6C19C" xlink:href="#m"/><path d="M0 .03h96.535v47.8H0V.03zm48.267 31.058c13.06-.18 20.273-14.56 20.273-14.56S58.93.03 48.267.03s-20.272 16.5-20.272 16.5 7.212 14.74 20.272 14.56z" fill="#8EBF1D" mask="url(#n)"/><path d="M48.267 31.057C63.775 30.843 72.34 13.77 72.34 13.77S60.93-5.822 48.266-5.822c-12.66 0-18.316 24.666-18.316 24.666s2.81 12.427 18.317 12.213zm0-3.88c11.638.032 20.09-13.65 20.09-13.65S58.834-1.94 48.267-1.94 30.115 18.914 30.115 18.914s6.514 8.23 18.152 8.262z" fill="#70A619" mask="url(#n)"/><path d="M48.46-46.588h.182c3.184.01 7.914.198 11.023 1.972 3.226 1.84 7.09 5.45 8.205 11.775 2.346 13.308-2.023 34.317-6.095 41.155-3.896 6.542-9.48 8.947-13.038 9.142-.03.01-.058.014-.087.014-.063 0-.127 0-.19-.002l-.193.003c-.03 0-.058-.004-.087-.013-3.56-.195-9.142-2.6-13.038-9.142-4.072-6.838-8.44-27.847-6.095-41.156 1.115-6.326 4.98-9.936 8.205-11.776 3.11-1.774 7.84-1.96 11.023-1.972h.184z" fill="#D4B08C" mask="url(#n)"/></g><path d="M35.692 14.874C54.09 14.918 55.68 27.3 55.787 28.518c1.025 11.59-2.903 24.314-6.588 29.752-3.897 5.75-9.48 7.862-13.04 8.034-.15.01-.213.01-.277.01h-.19c-3.648-.182-9.23-2.295-13.126-8.044-3.697-5.455-7.638-18.26-6.58-29.86.11-1.18 1.307-13.58 19.705-13.536z" fill="#F2CEA5"/><path d="M30.49 54.668c-.3 0-.392.37-.334.675.333 1.752 2.21 4.178 5.75 4.178s5.392-2.425 5.71-4.132c.057-.304-.007-.7-.318-.7l-10.81-.02z" fill="#D4B08C"/><g transform="translate(25.274 40.11)" fill="#291F21"><ellipse id="Oval-3" cx="19.307" cy="1.941" rx="1.931" ry="1.941"/><ellipse cx="1.931" cy="1.941" rx="1.931" ry="1.941"/></g><g><path d="M55.265 40.843s.716-3.33 2.487-4.27c1.258-5.31 1.314-7.144 1.31-8.016-.02-2.79-.276-5.56-1.856-7.83-1.75-2.513-5.452-3.935-7.383-3.935-2.245 1.334-7.43 4.43-9.094 6.294-.857.958.38 1.708.38 1.708s4.397-5.832 4.724-2.62c.327 3.212 9.43 11.227 9.43 11.227v7.443z" id="Path-5" fill="#452228"/><path d="M13.163 31.025c-.003.987.702 4.513 1.17 5.968 1.615.547 2.278 4.154 2.278 4.154v-7.755c5.778-1.627 12.4-4.985 16.163-10.028 1.163 3.482-.09 5.91-.09 5.91s6.487.17 11.337-3.54c2.938-2.245 6.353-8.92 6.353-8.92s-1.74-7.62-14.48-6.58c-5.393.44-7.996 3.807-16.8 2.943 0 0 .827 2.162 1.82 3.42-3.91 1.803-7.73 6.767-7.75 14.428z" fill="#6B363E"/></g></g></g><path d="M121 90.5c0 19.6 15.677 35.5 35 35.5 19.393 0 35-16.05 35-35.5 0-19.6-15.677-35.5-35-35.5s-35 15.9-35 35.5zm5.47-.365c0-16.372 13.22-29.645 29.53-29.645 16.31 0 29.53 13.273 29.53 29.645S172.31 119.78 156 119.78c-16.31 0-29.53-13.273-29.53-29.645z" fill="#E7FFFA"/><path d="M127.25 90.073c0-15.91 12.872-28.81 28.75-28.81s28.75 12.9 28.75 28.81c0 15.91-12.872 28.81-28.75 28.81s-28.75-12.9-28.75-28.81z" opacity=".3" fill="#40C9E7"/><path d="M184.75 89.197c0-15.428-12.48-27.934-27.876-27.934-7.556 0-14.4 3.024-19.418 7.916l39.395 39.477c4.882-5.03 7.9-11.888 7.9-19.46" opacity=".4" fill="#6FDAF1"/></g></g></svg>