<svg width="180" height="179" viewBox="0 0 180 179" xmlns="http://www.w3.org/2000/svg" xmlns:xlink="http://www.w3.org/1999/xlink"><title>Submit Request</title><defs><rect id="a" width="179.1" height="178.838" rx="187.137"/><rect id="c" width="87.623" height="104.484" rx="6"/><path id="e" d="M33.444 0h36.788v50.902H33.444z"/><path id="g" d="M0 3.996C0 1.79 1.792 0 3.995 0h10.01C16.21 0 18 1.79 18 3.996v54.912c0 1.1-.434 2.77-.98 3.746L9 77 .98 62.654c-.54-.97-.98-2.65-.98-3.746V3.996z"/></defs><g fill="none" fill-rule="evenodd"><mask id="b" fill="#fff"><use xlink:href="#a"/></mask><use fill="#FFF" xlink:href="#a"/><g transform="translate(41 4)" id="Group" mask="url(#b)"><rect fill="#E2E4E5" y="26.121" width="101" height="117.879" rx="6"/><rect fill="#FFF" x="6.689" y="32.819" width="87.623" height="104.484" rx="6"/><g transform="translate(6.689 32.819)"><mask id="d" fill="#fff"><use xlink:href="#c"/></mask><use fill="#FFF" xlink:href="#c"/><path d="M9.426 4.688c2.99 0 5.413-2.548 5.413-5.693 0-3.144-2.424-5.693-5.414-5.693-2.99 0-5.413 2.55-5.413 5.693 0 3.145 2.424 5.693 5.413 5.693zm17.862 0c2.99 0 5.413-2.548 5.413-5.693 0-3.144-2.423-5.693-5.412-5.693-2.99 0-5.413 2.55-5.413 5.693 0 3.145 2.423 5.693 5.413 5.693zm16.523 0c2.99 0 5.414-2.548 5.414-5.693 0-3.144-2.423-5.693-5.413-5.693-2.988 0-5.412 2.55-5.412 5.693 0 3.145 2.424 5.693 5.413 5.693zm16.525 0c2.99 0 5.413-2.548 5.413-5.693 0-3.144-2.424-5.693-5.413-5.693-2.99 0-5.413 2.55-5.413 5.693 0 3.145 2.423 5.693 5.413 5.693zm18.53 0c2.99 0 5.413-2.548 5.413-5.693 0-3.144-2.423-5.693-5.413-5.693s-5.413 2.55-5.413 5.693c0 3.145 2.424 5.693 5.413 5.693z" fill="#E2E4E5" mask="url(#d)"/><path d="M90.967 0v105.857c0 3.31-2.69 5.994-5.997 5.994H-4.036" opacity=".5" fill="#F0F1F1" mask="url(#d)"/></g><path d="M32.367 66.273L31.1 65 20.333 75.818l-5.066-5.09L14 72l6.333 6.364L21.6 77.09l10.767-10.817z" fill="#49E4C3"/><g transform="translate(17.391)"><path d="M66.22 43.2c.025-8.97-17.41-22.437-33.11-22.437S.01 34.857 0 43.2" fill="#C9F7ED"/><ellipse fill="#C9F7ED" cx="33.444" cy="17.414" rx="7.358" ry="7.367"/><ellipse fill="#49E4C3" cx="33.444" cy="17.414" rx="4.013" ry="4.019"/><mask id="f" fill="#fff"><use xlink:href="#e"/></mask><use xlink:href="#e"/><path d="M39.587 21.47c.767-1.163 1.214-2.557 1.214-4.056 0-4.07-3.293-7.367-7.356-7.367-4.064 0-7.358 3.298-7.358 7.367 0 1.457.423 2.815 1.152 3.96C13.368 24.163.008 35.888 0 43.2h66.22c.02-7.745-12.976-18.844-26.633-21.73z" opacity=".3" fill="#49E4C3" mask="url(#f)"/></g><path fill="#5B5C5F" d="M39.464 65.637h46.152v4.688H39.464zM39.464 79.033h46.152v4.688H39.464zM39.464 92.428h46.152v4.688H39.464zM39.464 105.823h46.152v4.688H39.464zM39.464 119.22h46.152v4.687H39.464z"/></g><g transform="rotate(-14 48.5 102.5) translate(39.5 64)" mask="url(#b)"><mask id="h" fill="#fff"><use xlink:href="#g"/></mask><use id="Rectangle-127" fill="#FFB53E" xlink:href="#g"/><path fill="#FFCF87" mask="url(#h)" d="M0 0h6.23v61.6H0z"/><path fill="#F99D1B" mask="url(#h)" d="M13.154 0h6.23v61.6h-6.23z"/><path stroke="#EB4946" fill="#FF8379" mask="url(#h)" d="M-1.385-3.5h20.77V8.4h-20.77z"/><circle fill="#232021" mask="url(#h)" cx="10.346" cy="76.9" r="5.5"/><ellipse fill="#FFDCB4" mask="url(#h)" cx="2.423" cy="64.05" rx="4.5" ry="4.55"/><path fill="#FFDCB4" mask="url(#h)" d="M2.77 65.1h12.46v7.7H2.77z"/><ellipse fill="#FFDCB4" mask="url(#h)" cx="9.346" cy="64.05" rx="4.5" ry="4.55"/><ellipse fill="#FFDCB4" mask="url(#h)" cx="16.269" cy="64.05" rx="4.5" ry="4.55"/></g></g></svg>